<svg width="28" height="28" viewBox="0 0 28 28" fill="none" xmlns="http://www.w3.org/2000/svg">
<path d="M7.87494 1.75C4.49224 1.75 1.75 4.49224 1.75 7.87494C1.75 11.2576 4.49224 13.9999 7.87494 13.9999C11.2576 13.9999 13.9768 11.281 13.9999 7.91799C14.0001 7.90364 14.0001 7.88929 14.0001 7.87494C14.0001 4.49224 11.2579 1.75 7.87494 1.75ZM10.172 7.91799L7.87494 7.91799L7.87494 10.2148H6.34389L6.34389 6.38669L10.172 6.38669V7.91799Z" fill="#C8193C"/>
<path d="M20.1251 1.75C16.7424 1.75 14.0001 4.49224 14.0001 7.87494C14.0001 7.88929 14.0001 7.90364 14.0004 7.91799C14.0235 11.281 16.7567 13.9999 20.1251 13.9999C23.4934 13.9999 26.25 11.2576 26.25 7.87494C26.25 4.49224 23.5078 1.75 20.1251 1.75ZM21.6564 10.2148H20.1251V7.91799H17.8282V6.38669H21.6564V10.2148Z" fill="#C8193C"/>
<path d="M7.87494 13.9999C4.49224 13.9999 1.75 16.7421 1.75 20.1251C1.75 23.508 4.49224 26.25 7.87494 26.25C11.2576 26.25 13.9771 23.5308 13.9999 20.1679C14.0001 20.1535 14.0001 20.1394 14.0001 20.1251C14.0001 16.7421 11.2579 13.9999 7.87494 13.9999ZM10.172 21.6992H6.34389V17.871H7.87494V20.1679H10.172V21.6992Z" fill="#C8193C"/>
<path d="M20.1251 13.9999C16.7424 13.9999 14.0001 16.7421 14.0001 20.1251C14.0001 20.1394 14.0001 20.1535 14.0004 20.1679C14.0232 23.5308 16.7567 26.25 20.1251 26.25C23.4934 26.25 26.25 23.5078 26.25 20.1251C26.25 16.7424 23.5078 13.9999 20.1251 13.9999ZM21.6564 21.6992H17.8282V20.1679H20.1251V17.871H21.6564V21.6992Z" fill="#C8193C"/>
</svg>
