<svg height="64" viewBox="0 0 64 64" width="64" xmlns="http://www.w3.org/2000/svg"><path d="m12.9090909 34v-12.6666667h38.1818182v12.6666667 14.9999986c0 1.5555584-.6250007 2.3333347-1.8749993 2.3333347h-4.7727273v8.6666667c0 1.1111111-.397728 2.0555548-1.193181 2.833334-.795456.7777764-1.7613644 1.166666-2.897728 1.166666h-.1704553c-.795456 0-1.5909091-.2777771-2.3863622-.833334-1.0227287-.7777764-1.5340916-1.8333327-1.5340916-3.166666v-8.6666667h-8.3522735v8.6666667c0 1.1111111-.397728 2.0555548-1.1931811 2.833334-.795456.7777764-1.7613643 1.166666-2.897728 1.166666-1.1363636 0-2.102272-.3888896-2.897728-1.166666-.7954531-.7777792-1.1931811-1.7222229-1.1931811-2.833334v-8.6666667h-4.9431825c-1.2499986 0-1.8749993-.7777763-1.8749993-2.3333347zm45-15.3333333c1.1363636 0 2.102272.3888896 2.897728 1.1666659.7954531.7777792 1.1931811 1.722223 1.1931811 2.8333341v16c0 1.1111111-.397728 2.0555548-1.1931811 2.833334-.795456.7777764-1.7613644 1.166666-2.897728 1.166666s-2.102272-.3888896-2.897728-1.166666c-.7954531-.7777792-1.1931811-1.7222229-1.1931811-2.833334v-16c0-1.1111111.397728-2.0555549 1.1931811-2.8333341.795456-.7777763 1.7613644-1.1666659 2.897728-1.1666659zm-51.81818181 0c1.13636364 0 2.102272.3888896 2.897728 1.1666659.79545309.7777792 1.19318111 1.722223 1.19318111 2.8333341v16c0 1.1111111-.39772802 2.0555548-1.19318111 2.833334-.795456.7777764-1.76136436 1.166666-2.897728 1.166666s-2.102272-.3888896-2.897728-1.166666c-.79545309-.7777792-1.19318109-1.7222229-1.19318109-2.833334v-16c0-1.1111111.397728-2.0555549 1.19318109-2.8333341.795456-.7777763 1.76136436-1.1666659 2.897728-1.1666659zm35.28409021-14.49999932c2.5 1.11111111 4.5170472 2.75000035 6.051136 4.91666489 1.5340916 2.16666733 2.5 3.97222403 2.897728 5.41666703.397728 1.4444459.6534109 2.833334.7670458 4.1666674h-38.1818182c.4545455-7.1111111 3.6363636-11.94444519 9.5454546-14.49999932l-3.0681833-3.66666809c0-.11110969.0568203-.22222222.1704553-.33333191l.5113658-.16666738 3.2386356 3.83333262c2.8409076-.99999858 5.7386356-1.50000071 8.6931811-1.50000071 2.8409076 0 5.6818182.50000213 8.5227287 1.50000071l3.409088-3.83333262c.1136378 0 .2272757.05555484.3409106.16666738l.3409105.33333191zm-17.7272728 8.33333192c1.4772742 0 2.2159099-.7222215 2.2159099-2.1666674 0-.55555412-.2272728-1.08333226-.6818182-1.58333154-.4545455-.49999929-.9659084-.75000036-1.5340917-.75000036-.6818181 0-1.2499985.25000107-1.704544.75000036-.4545454.49999928-.6818181 1.02777742-.6818181 1.58333154 0 .555557.25568 1.0555563.7670458 1.5000007.5113629.4444445 1.051136.6666667 1.6193163.6666667zm16.704547 0c.5681803 0 1.1079534-.2222222 1.6193163-.6666667.5113658-.4444444.7670458-.9444437.7670458-1.5000007 0-.55555412-.25568-1.08333226-.7670458-1.58333154-.5113629-.49999929-1.051136-.75000036-1.6193163-.75000036-1.4772742 0-2.2159099.7777792-2.2159099 2.3333319 0 1.4444459.7386357 2.1666674 2.2159099 2.1666674z" fill="#9fbf45" fill-rule="evenodd"/></svg>