<svg width="59" height="52" viewBox="0 0 59 52" xmlns="http://www.w3.org/2000/svg"><title>Xamarin</title><path d="M16.863 0c-1.578.003-3.123.9-3.918 2.266L.587 23.734c-.783 1.37-.783 3.162 0 4.532l12.358 21.468c.795 1.367 2.34 2.263 3.918 2.266H41.58c1.578-.003 3.123-.9 3.918-2.266l12.358-21.468c.782-1.37.782-3.162 0-4.532L45.498 2.266C44.703.9 43.158.003 41.58 0H16.863zm.224 12.56a.535.535 0 0 1 .104 0h4.264c.19.003.372.112.466.276l7.232 12.887c.037.064.06.135.07.208a.555.555 0 0 1 .068-.207l7.214-12.887a.564.564 0 0 1 .484-.277h4.263c.378.002.66.478.484.812L34.674 26l7.06 12.61c.194.337-.096.834-.483.83H36.99a.564.564 0 0 1-.484-.293L29.29 26.26a.555.555 0 0 1-.07-.208.555.555 0 0 1-.068.207L21.92 39.146a.564.564 0 0 1-.466.294H17.19c-.386.004-.676-.493-.482-.83L23.768 26l-7.06-12.628c-.17-.305.037-.748.38-.813z" fill="#BA59E8" fill-rule="evenodd"/></svg>
