<svg width="59" height="52" viewBox="0 0 59 52" xmlns="http://www.w3.org/2000/svg">
  <g transform="translate(2 1)" fill="none" fill-rule="evenodd">
    <ellipse fill="#67DAF9" fill-rule="nonzero" cx="27.5" cy="24.9854" rx="5.2067" ry="5.1916"/>
    <path d="M13.7533 48.7247c5.0157 2.896 15.22-5.3885 22.792-18.5035 7.572-13.115 9.6442-26.0945 4.6285-28.9903-5.0156-2.896-15.22 5.3883-22.792 18.5034-7.572 13.115-9.6442 26.0944-4.6285 28.9902z" stroke="#67DAF9" stroke-width="2.4861"/>
    <path d="M.0794 24.9854C.0794 30.777 12.356 35.472 27.5 35.472s27.4206-4.695 27.4206-10.4866c0-5.7917-12.2766-10.4867-27.4206-10.4867S.0794 19.1937.0794 24.9854z" stroke="#67DAF9" stroke-width="2.4861"/>
    <path d="M13.765 1.2662c-5.0158 2.8958-2.9435 15.875 4.6285 28.9902 7.572 13.115 17.7763 21.3994 22.792 18.5036 5.0157-2.8958 2.9434-15.8752-4.6286-28.9903C28.985 6.6547 18.7804-1.6297 13.765 1.2662z" stroke="#67DAF9" stroke-width="2.4861"/>
  </g>
</svg>
