<svg height="64" viewBox="0 0 64 64" width="64" xmlns="http://www.w3.org/2000/svg" xmlns:xlink="http://www.w3.org/1999/xlink"><mask id="a" fill="#fff"><rect fill="#fff" fill-rule="evenodd" height="30" rx="3.555556" width="40"/></mask><g fill="none" fill-rule="evenodd"><circle cx="32" cy="32" fill="#c8193c" r="32"/><g transform="translate(12 17)"><rect height="28.333333" mask="url(#a)" rx="3.555556" stroke="#fff" stroke-width="1.666667" width="38.333333" x=".833333" y=".833333"/><g fill="#fff"><path d="m10.3863461 11.9444444c1.5564802 0 2.5889968.4623209 3.5136385 1.3099091l-1.0325166 1.1712128c-.7397133-.6472491-1.4794267-.9246417-2.3578363-.9246417-.95546311 0-1.64894438.4314995-1.64894438 1.263677 0 .7705348.41608876 1.1095701 2.18831868 1.6643551 1.8646941.5856064 3.1591925 1.3561412 3.1591925 3.3595315 0 1.9109262-1.4948374 3.2670674-4.0376021 3.2670674-1.69517646 0-2.95885345-.6010172-3.83726307-1.4640161l1.07874865-1.2020342c.73971337.6934813 1.60271229 1.0941594 2.71228232 1.0941594 1.1403914 0 1.9571583-.5547851 1.9571583-1.5873016 0-.8938203-.4469102-1.2944984-2.11126524-1.8030513-2.23455078-.6934813-3.20542457-1.5873016-3.20542457-3.2054246 0-1.7722299 1.52565881-2.9434428 3.62151331-2.9434428zm7.9028846.2311605c2.8047465 0 5.4553861.8629989 5.4553861 5.2704577 0 4.3149946-2.6352289 5.3783325-5.1779936 5.3783325h-2.8972106v-10.6487902zm-.5856064 1.5256588v7.5974726h1.0016952c1.5873016 0 2.8972107-.7088919 2.8972107-3.8526737 0-3.2054246-1.3869626-3.7447989-2.9588535-3.7447989zm9.7059359 9.1231314h-2.0342117v-10.6487902h2.0342117zm2.2961936-5.8252427 3.9759593 5.8252427h-2.4194791l-3.7602096-5.6865464 3.6831561-4.9622438h2.2037294z" mask="url(#a)"/><path d="m40 0v6.66666667h-40v-6.66666667zm-36.22222222 2.22222222c-.61364972 0-1.11111111.49746139-1.11111111 1.11111111 0 .61364973.49746139 1.11111111 1.11111111 1.11111111s1.11111111-.49746138 1.11111111-1.11111111c0-.61364972-.49746139-1.11111111-1.11111111-1.11111111zm3.55555555 0c-.61364972 0-1.11111111.49746139-1.11111111 1.11111111 0 .61364973.49746139 1.11111111 1.11111111 1.11111111.61364973 0 1.11111111-.49746138 1.11111111-1.11111111 0-.61364972-.49746138-1.11111111-1.11111111-1.11111111zm3.55555557 0c-.6136497 0-1.11111112.49746139-1.11111112 1.11111111 0 .61364973.49746142 1.11111111 1.11111112 1.11111111s1.1111111-.49746138 1.1111111-1.11111111c0-.61364972-.4974614-1.11111111-1.1111111-1.11111111z" mask="url(#a)"/></g></g></g></svg>