<?xml version="1.0" encoding="UTF-8" standalone="no"?>
<svg width="50px" height="59px" viewBox="0 0 50 59" version="1.1" xmlns="http://www.w3.org/2000/svg" xmlns:xlink="http://www.w3.org/1999/xlink">
    <!-- Generator: Sketch 40.1 (33804) - http://www.bohemiancoding.com/sketch -->
    <title>sdk_ios</title>
    <desc>Created with Sketch.</desc>
    <defs></defs>
    <g id="Current" stroke="none" stroke-width="1" fill="none" fill-rule="evenodd">
        <g id="Scanbot-App-SDK" transform="translate(-788.000000, -2715.000000)" fill="#000000">
            <g id="f227" transform="translate(732.000000, 2715.000000)">
                <path d="M92.6981895,13.7567948 C96.9128289,13.7567948 100.562089,15.7438852 103.645971,19.7180713 C100.562089,21.450407 98.5575658,23.9470122 97.6324,27.2078817 C96.7072368,30.4687513 96.9642263,33.6277174 98.4033711,36.6847826 C99.8425158,39.7418478 102.155426,41.8817948 105.342105,43.1046209 C104.211347,45.7540748 102.977795,48.0978261 101.641447,50.1358696 C97.9407895,55.8423913 94.5999184,58.6956522 91.6188316,58.6956522 L91.4646368,58.6956522 C90.3338816,58.6956522 88.8690368,58.2880435 87.0701079,57.4728261 C85.2711763,56.6576087 83.4979447,56.25 81.7504105,56.25 C79.9000816,56.25 78.0754526,56.6576087 76.2765211,57.4728261 C74.4775895,58.2880435 73.0127474,58.6956522 71.8819895,58.6956522 L71.7277947,58.6956522 C68.6439158,58.6956522 65.3544421,55.9952452 61.8593737,50.5944287 C58.5699,45.49932 56.6681737,40.0985061 56.1541947,34.3919843 C55.6402132,28.6854626 56.4625816,24.2527174 58.6213,21.0937513 C61.7051816,16.202447 65.7142263,13.7567948 70.6484368,13.7567948 C72.1903789,13.7567948 74.1178053,14.1644035 76.4307158,14.9796209 C78.7436263,15.7948383 80.4654605,16.202447 81.5962158,16.202447 C82.6241789,16.202447 84.2689158,15.7948383 86.5304263,14.9796209 C88.7919421,14.1644035 90.8478632,13.7567948 92.6981895,13.7567948 L92.6981895,13.7567948 Z M91.4646368,0 C91.8758211,3.26086957 90.9506579,6.41983826 88.6891447,9.47690087 C86.3248368,12.5339687 83.4465474,14.0625 80.0542763,14.0625 L79.9000816,14.0625 C79.3861026,11.1073357 80.3112658,8.05027304 82.6755763,4.89130435 C85.2454763,1.83423913 88.1751632,0.203804348 91.4646368,0 L91.4646368,0 Z" id="sdk_ios"></path>
            </g>
        </g>
    </g>
</svg>