<svg width="55" height="52" viewBox="0 0 55 52" xmlns="http://www.w3.org/2000/svg"><title>E6B62A47-23AA-4F18-8429-F355C895DC17</title><path d="M49.524 52h-8.822l.62-7.429h-4.334L36.369 52H18.107l-.62-7.429h-4.332l.62 7.429H4.951L0 19.81 12.381 0h29.714l12.381 19.81L49.524 52zM39.619 9.905h-7.96l.531 3.714h-9.904l.53-3.714h-7.959L9.905 19.81l2.476 19.809h29.714l2.476-19.81-4.952-9.904zm-4.333 23.14c-.684 0-1.238-2.062-1.238-4.606s.554-4.606 1.238-4.606c.683 0 1.238 2.062 1.238 4.606s-.555 4.606-1.238 4.606zm-15.631.384c-.684 0-1.238-2.062-1.238-4.606s.554-4.606 1.238-4.606c.684 0 1.238 2.062 1.238 4.606s-.554 4.606-1.238 4.606z" fill-rule="nonzero" fill="#000"/></svg>