<?xml version="1.0" encoding="UTF-8" standalone="no"?>
<svg width="55px" height="59px" viewBox="0 0 55 59" version="1.1" xmlns="http://www.w3.org/2000/svg" xmlns:xlink="http://www.w3.org/1999/xlink">
    <!-- Generator: Sketch 40.1 (33804) - http://www.bohemiancoding.com/sketch -->
    <title>sdk_android</title>
    <desc>Created with Sketch.</desc>
    <defs></defs>
    <g id="Current" stroke="none" stroke-width="1" fill="none" fill-rule="evenodd">
        <g id="Scanbot-App-SDK" transform="translate(-1078.000000, -2715.000000)" fill="#000000">
            <g id="f225" transform="translate(1010.000000, 2715.000000)">
                <path d="M77.8214286,31.1820652 L77.8214286,19.5652174 L112.196429,19.5652174 L112.196429,31.1820652 L112.196429,44.9388574 C112.196429,46.3654904 111.633742,47.0788043 110.508371,47.0788043 L106.211496,47.0788043 L106.211496,55.0271739 C106.211496,56.0461957 105.853423,56.9123635 105.137278,57.62568 C104.421131,58.3389939 103.551526,58.6956522 102.52846,58.6956522 L102.375,58.6956522 C101.658853,58.6956522 100.942708,58.4408974 100.226564,57.9313852 C99.3058036,57.2180713 98.8454248,56.25 98.8454248,55.0271739 L98.8454248,47.0788043 L91.3258929,47.0788043 L91.3258929,55.0271739 C91.3258929,56.0461957 90.9678193,56.9123635 90.2516748,57.62568 C89.5355276,58.3389939 88.6659226,58.6956522 87.6428571,58.6956522 C86.6197917,58.6956522 85.7501867,58.3389939 85.0340395,57.62568 C84.317895,56.9123635 83.9598214,56.0461957 83.9598214,55.0271739 L83.9598214,47.0788043 L79.509486,47.0788043 C78.3841152,47.0788043 77.8214286,46.3654904 77.8214286,44.9388574 L77.8214286,31.1820652 Z M118.334821,17.1195652 C119.357887,17.1195652 120.227492,17.4762235 120.943639,18.1895374 C121.659784,18.9028539 122.017857,19.7690217 122.017857,20.7880435 L122.017857,35.4619565 C122.017857,36.4809783 121.659784,37.3471461 120.943639,38.0604626 C120.227492,38.7737765 119.357887,39.1304348 118.334821,39.1304348 C117.311756,39.1304348 116.442151,38.7737765 115.726004,38.0604626 C115.009859,37.3471461 114.651786,36.4809783 114.651786,35.4619565 L114.651786,20.7880435 C114.651786,19.7690217 115.009859,18.9028539 115.726004,18.1895374 C116.442151,17.4762235 117.311756,17.1195652 118.334821,17.1195652 L118.334821,17.1195652 Z M71.6830357,17.1195652 C72.7061012,17.1195652 73.5757062,17.4762235 74.2918533,18.1895374 C75.0079979,18.9028539 75.3660714,19.7690217 75.3660714,20.7880435 L75.3660714,35.4619565 C75.3660714,36.4809783 75.0079979,37.3471461 74.2918533,38.0604626 C73.5757062,38.7737765 72.7061012,39.1304348 71.6830357,39.1304348 C70.6599702,39.1304348 69.7903652,38.7737765 69.0742181,38.0604626 C68.3580736,37.3471461 68,36.4809783 68,35.4619565 L68,20.7880435 C68,19.7690217 68.3580736,18.9028539 69.0742181,18.1895374 C69.7903652,17.4762235 70.6599702,17.1195652 71.6830357,17.1195652 L71.6830357,17.1195652 Z M103.449218,3.82133217 C105.699962,4.84035391 107.515905,6.3434113 108.897041,8.33050174 C110.27818,10.3175948 111.147785,11.9735061 111.505859,13.298233 C111.863933,14.6229626 112.094123,15.8967391 112.196429,17.1195652 L77.8214286,17.1195652 C78.2306548,10.5978261 81.0952381,6.16508087 86.4151786,3.82133217 L83.6529005,0.45855913 C83.6529005,0.356658261 83.7040557,0.254754783 83.806361,0.152853913 L84.2667424,0 L87.1824783,3.51562435 C89.7401407,2.59850609 92.3489583,2.13994435 95.0089286,2.13994435 C97.566591,2.13994435 100.124256,2.59850609 102.681921,3.51562435 L105.751115,0 C105.853423,0 105.95573,0.0509504348 106.058036,0.152853913 L106.364957,0.45855913 L103.449218,3.82133217 Z M87.4893967,11.4639939 C88.8193831,11.4639939 89.484375,10.8016304 89.484375,9.47690087 C89.484375,8.9673913 89.2797619,8.48335565 88.8705357,8.02479652 C88.4613095,7.56623739 88.0009307,7.33695652 87.4893967,7.33695652 C86.8755574,7.33695652 86.364026,7.56623739 85.9547998,8.02479652 C85.5455736,8.48335565 85.3409605,8.9673913 85.3409605,9.47690087 C85.3409605,9.98641304 85.5711486,10.4449722 86.03153,10.8525809 C86.4919088,11.2601896 86.9778652,11.4639939 87.4893967,11.4639939 L87.4893967,11.4639939 Z M102.52846,11.4639939 C103.039992,11.4639939 103.525948,11.2601896 103.986327,10.8525809 C104.446709,10.4449722 104.676897,9.98641304 104.676897,9.47690087 C104.676897,8.9673913 104.446709,8.48335565 103.986327,8.02479652 C103.525948,7.56623739 103.039992,7.33695652 102.52846,7.33695652 C101.198474,7.33695652 100.533482,8.05027304 100.533482,9.47690087 C100.533482,10.8016304 101.198474,11.4639939 102.52846,11.4639939 L102.52846,11.4639939 Z" id="sdk_android"></path>
            </g>
        </g>
    </g>
</svg>