<svg height="64" viewBox="0 0 64 64" width="64" xmlns="http://www.w3.org/2000/svg"><path d="m46.1608352 15.0000014c4.6130559 0 8.6072867 2.1666646 11.9826924 6.4999993-3.3754057 1.8888875-5.5694201 4.6111118-6.5820433 8.1666674-1.0126203 3.5555555-.7313372 6.9999986.8438522 10.3333319 1.5751893 3.3333333 4.1067428 5.6666681 7.5946635 7.0000014-1.2376502 2.8888861-2.5878125 5.444443-4.0504868 7.6666653-4.0504869 6.2222222-7.7071757 9.3333333-10.9700693 9.3333333h-.168771c-1.2376473 0-2.8409661-.4444444-4.8099506-1.3333333-1.9689874-.8888889-3.9098453-1.3333334-5.8225766-1.3333334-2.0252435 0-4.0223574.4444445-5.9913448 1.3333334s-3.5723033 1.3333333-4.8099535 1.3333333h-.168771c-3.3754028 0-6.9758355-2.9444437-10.8012982-8.833334-3.60043277-5.5555556-5.68193223-11.4444431-6.24449841-17.6666653-.56256906-6.2222222.33753913-11.0555563 2.70032456-14.4999993 3.37540575-5.3333333 7.76343165-8 13.16408075-8 1.6877043 0 3.7973333.4444445 6.3288868 1.3333334 2.5315536.8888888 4.4161554 1.3333333 5.6538028 1.3333333 1.1251381 0 2.9253545-.4444445 5.4006491-1.3333333 2.4753004-.8888889 4.7255708-1.3333334 6.7508114-1.3333334zm-1.3501623-15.0000014c.4500541 3.55555556-.5625662 7.00000142-3.0378637 10.3333319-2.5878096 3.3333362-5.7381882 5.0000014-9.4511359 5.0000014h-.1687711c-.5625661-3.2222236.4500541-6.5555541 3.0378666-9.99999997 2.8128367-3.33333333 6.0194714-5.11111111 9.6199041-5.33333333z" fill-rule="evenodd"/></svg>