<svg height="64" viewBox="0 0 64 64" width="64" xmlns="http://www.w3.org/2000/svg"><path d="m47.7476503 4.79992333c3.8501651 2.20436973 4.5454503 8.37018967 2.6356108 16.13865787 7.4073942 2.2567767 12.1918715 5.8614066 12.1918715 10.1582183 0 4.3497139-4.9030155 7.990097-12.4667485 10.2419115 2.2411116 8.2657468 1.6634132 14.8972886-2.3607338 17.2012697-3.9011358 2.2335524-9.7345402-.3480621-15.6433045-6.026844-5.9090628 5.6784904-11.7429058 8.2605226-15.6442618 6.026844-3.9551119-2.2644559-4.58101-8.7092655-2.4736416-16.7774349-8.42014248-2.2018338-13.9864424-6.0311452-13.9864424-10.6657463 0-4.5853146 5.44853996-8.382376 13.7188704-10.5954883-1.7769198-7.5621097-1.0364177-13.53854655 2.7412136-15.70138787 3.901356-2.23367856 9.735199.34835363 15.6443054 6.02780597 5.9087207-5.6797439 11.7421251-8.26135841 15.6432609-6.02780597zm-31.1065125 37.58376037-.0634696.2437268c-1.7673097 6.8220253-1.4153657 12.0621214 1.2392745 13.5820065 2.6374819 1.5100613 7.3454596-.7681085 12.3824956-5.6314591-1.9271757-2.064971-3.841613-4.4405924-5.6781705-7.0669485-2.7823916-.2366711-5.4275699-.6181007-7.88013-1.1273257zm30.8328533-.3426668-.1400354.0332307c-2.3315135.5475369-4.8588009.9751456-7.5295268 1.2669726-1.8726072 2.6943502-3.8277147 5.1275844-5.7966266 7.2368418 5.0379229 4.8634368 9.7456176 7.1413532 12.3829893 5.631355 2.7302084-1.5631509 3.0247554-7.06133 1.0831995-14.1684001zm-11.2324798 1.6025244-.3869616.0229062c-1.491347.0839663-3.0163201.1271514-4.5669834.1271514-1.0998851 0-2.1868453-.0217267-3.2580486-.0643223 1.3440386 1.7921957 2.7130806 3.4341351 4.0741947 4.9021345 1.3829117-1.4911749 2.7736941-3.1618252 4.1377989-4.9878698zm-4.953945-22.5524381c-1.5062023 0-2.9844509.0437469-4.4264307.1273714-1.2018845 1.7029462-2.375366 3.5250592-3.4952723 5.4486293-.976869 1.6778869-1.8659411 3.3521842-2.665517 5.0030845.7999347 1.6511032 1.6888451 3.3250634 2.665517 5.0026118.8612927 1.479371 1.7542739 2.8987324 2.6676701 4.2502958 1.7019074.1172039 3.458099.1793997 5.2540329.1793997 2.410344 0 4.7491018-.1120311 6.9821963-.3202366.8794879-1.3088542 1.7405668-2.6811888 2.5721084-4.1094589.9766719-1.6775484 1.8655823-3.3515086 2.665033-5.0020852-.7990919-1.6514269-1.688164-3.3257242-2.665033-5.0036111-1.0936533-1.8784777-2.2383996-3.6601991-3.4111578-5.3292192-1.9773818-.1609045-4.0328273-.2467815-6.1431469-.2467815zm-12.0270872 13.7505203-.0476748.1128008c-.6967113 1.6531988-1.2979294 3.2677495-1.8018167 4.8222311 1.6322451.3321773 3.3627078.6097875 5.1724068.8237191-.5319599-.8407806-1.0552511-1.7018671-1.5676794-2.5820228-.6174587-1.0605575-1.2028519-2.1208168-1.7552359-3.1767282zm25.6871483.0008457-.039135.0731551c-.5409866 1.0314431-1.1134374 2.066943-1.7164731 3.1027274-.4649963.7986856-.9389375 1.5816688-1.4205147 2.3477389 1.7279089-.2515087 3.3731931-.5618107 4.916531-.922231-.4927584-1.4865352-1.0733725-3.0266857-1.7404082-4.6013904zm-30.5318525-11.7261126-.0251758.0069443c-7.08943977 1.8884356-11.67688161 4.8697332-11.67688161 7.9734986 0 3.1547702 4.73945376 6.1830146 12.02840671 8.0657081.7686317-2.4059734 1.7569019-4.9234066 2.9511023-7.4919313-1.3707714-2.9494312-2.4705213-5.8312665-3.2774516-8.5542197zm35.2471486.4274611-.0735766.2397922c-.784938 2.5247481-1.8155532 5.1773122-3.0753036 7.8867168 1.1263329 2.4218037 2.0691635 4.7979458 2.8171461 7.0780031 6.4335255-1.8947806 10.5302257-4.7184721 10.5302257-7.6515303 0-2.8823326-3.9562249-5.6590485-10.1984916-7.5529818zm-18.3796285 1.2561823c3.1387972 0 5.6832951 2.516006 5.6832951 5.6196566 0 3.1036507-2.5444979 5.6196567-5.6832951 5.6196567-3.1387971 0-5.683295-2.516006-5.683295-5.6196567 0-3.1036506 2.5444979-5.6196566 5.683295-5.6196566zm-7.9000109-3.2962227-.2879669.0308689c-2.121948.2348172-4.1391982.5569363-6.020899.9520016.5758769 1.9154336 1.3057308 3.9335207 2.1861123 6.0117872.5523326-1.0560659 1.1377258-2.1163252 1.7551845-3.1768827.7668206-1.3171042 1.557967-2.5915061 2.3675691-3.817775zm17.5805394.2114605.1059582.1624758c.7242209 1.1108246 1.4330539 2.2600851 2.1222376 3.4438387.6172638 1.0602228 1.2024823 2.1201475 1.7547128 3.1757283.8285436-1.9537168 1.5231417-3.85439 2.0816653-5.666613-1.8774754-.4520603-3.9104412-.8291462-6.0645739-1.1154298zm-6.7871273-9.1150397-.1688939.1616439c1.6629361 1.7814714 3.3160248 3.7940494 4.9177632 5.9993354 3.1591656.3070073 6.1300206.8015056 8.8287941 1.458718 1.6246056-6.5812226 1.2267388-11.60635665-1.363568-13.08940836-2.6080676-1.49322044-7.2407065.71776544-12.2140954 5.46971106zm-16.3597535-5.46971106c-2.5438978 1.45648079-2.9732131 6.32925826-1.4493749 12.73664746 2.7817408-.5915303 5.8162186-1.017749 9.0217934-1.2535923 1.5686329-2.1477271 3.1848964-4.1101465 4.8105707-5.8517002-5.0375296-4.8632465-9.7455073-7.14141623-12.3829892-5.63135496zm14.2868217 7.57772826-.0744738.0807085c-1.0325427 1.1182012-2.0692973 2.336219-3.0957537 3.6440293.7771007-.0216929 1.5622158-.0329531 2.3540294-.0329531 1.3677063 0 2.7154271.0335958 4.0377168.0991379-1.0673256-1.364505-2.1468937-2.6319262-3.2215187-3.7909226z" fill="#49a2cd"/></svg>