<svg width="59" height="59" viewBox="0 -4 59 52" xmlns="http://www.w3.org/2000/svg"><title>Xamarin</title><path d="M16.86 0c-1.58 0-3.12.9-3.92 2.27L.6 23.73c-.8 1.37-.8 3.17 0 4.54l12.34 21.46c.8 1.37 2.34 2.27 3.92 2.27h24.72c1.58 0 3.12-.9 3.92-2.27l12.36-21.46c.78-1.37.78-3.17 0-4.54L45.5 2.27C44.7.9 43.16 0 41.58 0H16.86zm.23 12.56h4.35c.2 0 .38.1.47.28l7.23 12.88c.04.07.06.14.07.2 0-.06.03-.13.07-.2l7.2-12.88c.1-.17.3-.28.5-.28h4.25c.38 0 .66.48.48.8L34.67 26l7.06 12.6c.2.35-.1.84-.48.84H37c-.2 0-.4-.12-.5-.3l-7.2-12.88c-.05-.06-.07-.14-.08-.2 0 .06-.03.14-.07.2l-7.23 12.9c-.1.16-.27.27-.47.28H17.2c-.4 0-.7-.5-.5-.83L23.78 26 16.7 13.37c-.16-.3.04-.75.4-.8z" fill="#000" fill-rule="evenodd"/></svg>
