<?xml version="1.0" encoding="UTF-8"?>
<svg width="55px" height="52px" viewBox="0 0 55 52" version="1.1" xmlns="http://www.w3.org/2000/svg" xmlns:xlink="http://www.w3.org/1999/xlink">
  <title>Cordova</title>
  <g stroke="none" stroke-width="1" fill-rule="nonzero" fill="#ED6D64">
    <g transform="translate(-1178.000000, -2747.000000)">
      <path d="M1227.52368,2799 L1218.70238,2799 L1219.32141,2791.57125 L1214.988,2791.57125 L1214.36897,2799 L1196.10714,2799 L1195.4879,2791.57125 L1191.15492,2791.57125 L1191.77416,2799 L1182.95222,2799 L1178,2766.8093 L1190.38097,2747 L1220.09514,2747 L1232.47611,2766.8093 L1227.52368,2799 Z M1217.61903,2756.90465 L1209.65977,2756.90465 L1210.19049,2760.61903 L1200.28562,2760.61903 L1200.81634,2756.90465 L1192.85708,2756.90465 L1187.90465,2766.80951 L1190.38097,2786.61881 L1220.09514,2786.61881 L1222.57146,2766.80951 L1217.61903,2756.90465 L1217.61903,2756.90465 Z M1213.28562,2780.04465 C1212.60191,2780.04465 1212.04757,2777.98265 1212.04757,2775.43908 C1212.04757,2772.8953 1212.60191,2770.8333 1213.28562,2770.8333 C1213.96934,2770.8333 1214.52368,2772.8953 1214.52368,2775.43908 C1214.52368,2777.98265 1213.96934,2780.04465 1213.28562,2780.04465 Z M1197.65481,2780.42854 C1196.97109,2780.42854 1196.41654,2778.36654 1196.41654,2775.82276 C1196.41654,2773.27919 1196.97109,2771.21718 1197.65481,2771.21718 C1198.33853,2771.21718 1198.89286,2773.27919 1198.89286,2775.82276 C1198.89286,2778.36654 1198.33853,2780.42854 1197.65481,2780.42854 Z" id="icn_sdk_platform_cordova"></path>
    </g>
  </g>
</svg>
