<svg height="64" viewBox="0 0 64 64" width="64" xmlns="http://www.w3.org/2000/svg" xmlns:xlink="http://www.w3.org/1999/xlink"><linearGradient id="a" x1="77.166687%" x2="0%" y1="0%" y2="100%"><stop offset="0" stop-color="#e5e5e5"/><stop offset="1" stop-color="#fff"/></linearGradient><linearGradient id="b" x1="0%" x2="90.576758%" y1="0%" y2="100%"><stop offset="0" stop-color="#e8e8e8"/><stop offset="1" stop-color="#acacac"/></linearGradient><linearGradient id="c" x1="56.862013%" x2="58.783899%" y1="45.210945%" y2="45.458506%"><stop offset="0" stop-color="#868d93"/><stop offset="1" stop-color="#25303b"/></linearGradient><linearGradient id="d" x1="59.88688%" x2="57.648294%" y1="51.633364%" y2="51.929984%"><stop offset="0" stop-color="#3b4651"/><stop offset="1" stop-color="#767f86"/></linearGradient><radialGradient id="e" cx="50.00005%" cy="50.00005%" gradientTransform="matrix(1 0 0 .99419613 0 .002902)" r="49.99995%"><stop offset="0" stop-color="#fff"/><stop offset=".577635843" stop-color="#ebfeff"/><stop offset="1" stop-color="#09f0ff"/></radialGradient><g fill="none" transform="translate(0 1)"><path d="m14.4961148 0h34.7906757l14.4961147 23.3749852h-63.7829052z" fill="url(#a)"/><path d="m0 23.3749852h63.7829052l-5.798446 37.5086971h-10.5096832l-2.1744171-8.6976689h-1.9932158l-.7248058 8.6976689h-21.3817694l-.7248058-8.6976689h-1.9932158l-2.1744171 8.6976689h-10.50968328z" fill="url(#b)"/><path d="m16.3081292 60.8836823-.9060072-8.6976689h3.0804243z" fill="#838384"/><path d="m45.3003589 52.1860134h3.0804243l-.9060072 8.6976689z" fill="#838384"/><path d="m11.5968919 23.3749852h40.5891215l-2.8992229 23.0125822h-34.7906757z" fill="url(#c)"/><path d="m17.3953378 11.5968919h9.2412732l-.5436044 4.3488344h11.596892l-.5436044-4.3488344h9.2412732l5.798446 11.7780933h-40.5891215z" fill="url(#d)"/><ellipse cx="23.012581" cy="33.703467" fill="#000" rx="1.678498" ry="5.436042"/><ellipse cx="1.850691" cy="5.572607" fill="url(#e)" rx="1.678498" ry="5.436042" transform="translate(21.16189 28.13086)"/><ellipse cx="41.313927" cy="33.703467" fill="#000" rx="1.678498" ry="5.436042"/><ellipse cx="1.688564" cy="5.572607" fill="url(#e)" rx="1.678498" ry="5.436042" transform="translate(39.625363 28.13086)"/></g></svg>