<svg height="64" viewBox="0 0 64 64" width="64" xmlns="http://www.w3.org/2000/svg"><path d="m18.4665801 4c-1.7285028.00360462-3.4205124.96848719-4.290652 2.44044863l-13.53348597 23.11909377c-.85658951 1.4759024-.85658951 3.405013 0 4.8809153l13.53348597 23.1190935c.8702311 1.4719734 2.5621492 2.4371146 4.290652 2.4404488h27.0668765c1.7285029-.0036048 3.42042-.9684754 4.2906512-2.4404488l13.5334838-23.1190935c.8565886-1.4759023.8565004-3.4050129 0-4.8809153l-13.5334838-23.11909377c-.8702312-1.47196144-2.5621483-2.43711435-4.2906512-2.44044863zm.2456333 13.5249497c.0371821-.0036046.0761806-.0036046.1134784 0h4.6686291c.2066592.0042053.4071193.1216556.5103208.2980653l7.9197682 13.8789168c.039864.0686198.0655501.1450732.0752968.2235461.0097527-.0784907.0354142-.1549505.0752967-.2235461l7.9008121-13.8789168c.1064764-.1817565.3163268-.2998556.5291898-.2980653h4.6686312c.4134123.0036046.7230065.5156698.5292775.8755843l-7.7306477 13.599469 7.7306477 13.580839c.2120657.3619815-.1051465.897789-.5292775.8942085h-4.6686312c-.216583-.0018024-.4276742-.128072-.5291898-.3166954l-7.9008121-13.8789166c-.0398644-.0686198-.0655501-.1450796-.0752967-.223546-.0097527.0784842-.0354147.1549564-.0752968.223546l-7.9197682 13.8789166c-.098502.1832885-.3000287.3083504-.5103208.3166954h-4.6686291c-.4241315.0036043-.741258-.532227-.5291922-.8942085l7.7306454-13.580839-7.7306454-13.599469c-.185313-.3283802.0407784-.8054926.4157138-.8755843z" fill="#5196d5" fill-rule="evenodd"/></svg>