<svg width="55" height="59" viewBox="0 0 55 59" xmlns="http://www.w3.org/2000/svg"><title>Android</title><path d="M9.82 31.182V19.565h34.376V44.94c0 1.425-.562 2.14-1.688 2.14H38.21v7.947c0 1.02-.357 1.885-1.073 2.6-.716.712-1.585 1.07-2.61 1.07h-.152c-.716 0-1.432-.256-2.148-.766-.92-.712-1.382-1.68-1.382-2.903V47.08h-7.52v7.947c0 1.02-.357 1.885-1.073 2.6-.716.712-1.586 1.07-2.61 1.07-1.022 0-1.892-.358-2.608-1.07-.716-.715-1.074-1.58-1.074-2.6V47.08h-4.45c-1.126 0-1.69-.715-1.69-2.14V31.18zM50.336 17.12c1.023 0 1.892.356 2.61 1.07.715.713 1.073 1.58 1.073 2.598v14.674c0 1.02-.358 1.885-1.074 2.598-.717.714-1.586 1.07-2.61 1.07-1.022 0-1.892-.356-2.608-1.07-.716-.713-1.074-1.58-1.074-2.598V20.788c0-1.02.358-1.885 1.074-2.598.716-.714 1.586-1.07 2.61-1.07zm-46.652 0c1.023 0 1.893.356 2.61 1.07.715.713 1.073 1.58 1.073 2.598v14.674c0 1.02-.358 1.885-1.074 2.598-.716.714-1.586 1.07-2.61 1.07-1.022 0-1.892-.356-2.608-1.07C.358 37.347 0 36.48 0 35.462V20.788c0-1.02.358-1.885 1.074-2.598.716-.714 1.586-1.07 2.61-1.07zM35.45 3.82c2.25 1.02 4.066 2.523 5.447 4.51 1.38 1.988 2.25 3.644 2.61 4.968.357 1.325.587 2.6.69 3.822H9.82c.41-6.522 3.275-10.955 8.595-13.3L15.653.46c0-.103.05-.205.153-.307l.46-.153 2.916 3.516A23.027 23.027 0 0 1 27.01 2.14c2.557 0 5.114.46 7.672 1.376L37.752 0c.1 0 .204.05.306.153l.307.306-2.916 3.36zm-15.96 7.644c1.33 0 1.994-.662 1.994-1.987 0-.51-.204-.994-.613-1.452-.41-.46-.87-.688-1.38-.688-.614 0-1.126.23-1.535.688-.41.458-.614.942-.614 1.452s.23.968.692 1.376c.46.407.946.61 1.457.61zm15.038 0c.512 0 .998-.204 1.458-.61.46-.41.69-.868.69-1.377 0-.51-.23-.994-.69-1.452-.46-.46-.946-.688-1.458-.688-1.33 0-1.995.713-1.995 2.14 0 1.325.665 1.987 1.995 1.987z" fill="#2DC078" fill-rule="evenodd"/></svg>
