<svg width="50" height="59" viewBox="0 0 50 59" xmlns="http://www.w3.org/2000/svg"><title>iOS</title><path d="M36.692 13.757c4.215 0 7.864 1.987 10.948 5.96-3.084 1.733-5.088 4.23-6.014 7.49-.925 3.262-.668 6.42.77 9.478 1.44 3.057 3.753 5.197 6.94 6.42-1.13 2.65-2.364 4.993-3.7 7.03-3.7 5.707-7.042 8.56-10.023 8.56h-.154c-1.132 0-2.597-.407-4.396-1.222-1.8-.815-3.572-1.223-5.32-1.223-1.85 0-3.674.408-5.473 1.223-1.798.815-3.263 1.223-4.394 1.223h-.154c-3.084 0-6.373-2.7-9.87-8.102C2.565 45.5.663 40.1.15 34.392c-.514-5.707.31-10.14 2.467-13.298 3.084-4.892 7.093-7.337 12.028-7.337 1.54 0 3.47.407 5.782 1.223 2.313.815 4.035 1.222 5.165 1.222 1.028 0 2.673-.407 4.934-1.222 2.262-.816 4.318-1.223 6.168-1.223zM35.46 0c.41 3.26-.515 6.42-2.777 9.477-2.364 3.057-5.242 4.585-8.635 4.585h-.154c-.514-2.955.41-6.012 2.776-9.17C29.24 1.833 32.17.203 35.46 0z" fill="#46A3EE" fill-rule="evenodd"/></svg>
